<svg version="1.1" xmlns="http://www.w3.org/2000/svg" xmlns:xlink="http://www.w3.org/1999/xlink" width="76.4" height="76.4" viewBox="0,0,76.4,76.4"><g transform="translate(-201.80005,-141.80001)"><g data-paper-data="{&quot;isPaintingLayer&quot;:true}" fill-rule="nonzero" stroke-linejoin="miter" stroke-miterlimit="10" stroke-dasharray="" stroke-dashoffset="0" style="mix-blend-mode: normal"><path d="M240.00005,141.80001c11.1,0 17.9,0 22.4,1.9c6.5,2.3 11.6,7.5 14,14c1.8,4.4 1.8,11.3 1.8,22.3c0,11 0,17.9 -1.8,22.3c-2.4,6.5 -7.5,11.7 -14,14c-4.5,1.9 -11.3,1.9 -22.4,1.9c-11,0 -17.9,0 -22.3,-1.9c-6.5,-2.3 -11.6,-7.5 -14,-14c-1.8,-4.4 -1.9,-11.3 -1.9,-22.3c0,-11 0.1,-17.9 1.9,-22.3c2.4,-6.5 7.5,-11.7 14,-14c4.4,-1.9 11.3,-1.9 22.3,-1.9z" fill="#f1f1f1" stroke="none" stroke-width="1" stroke-linecap="butt"/><path d="M227.24177,199.09471c0,0 -4.80681,-4.69898 -5.12251,-5.01588c-4.0777,-4.09305 -6.59832,-6.69759 -7.55962,-9.00207c-1.51652,-3.3083 -1.54647,-7.13377 0.01954,-10.39914c0.93289,-2.33807 3.50035,-4.89589 7.5934,-8.97359c0.27995,-0.2789 5.59348,-5.57206 5.59348,-5.57206" fill="none" stroke="#185af2" stroke-width="10" stroke-linecap="butt"/><path d="M252.75832,160.90531c0,0 4.80681,4.69898 5.12252,5.01588c4.0777,4.09305 6.59832,6.69758 7.55963,9.00206c1.51652,3.3083 1.54647,7.13377 -0.01954,10.39914c-0.93289,2.33807 -3.50035,4.89589 -7.5934,8.97359c-0.27995,0.2789 -5.59348,5.57206 -5.59348,5.57206" data-paper-data="{&quot;index&quot;:null}" fill="none" stroke="#185af2" stroke-width="10" stroke-linecap="butt"/><path d="M235.94974,188.84896l8.10062,-17.69789" fill="none" stroke="#000000" stroke-width="10" stroke-linecap="round"/></g></g></svg>