<svg version="1.1" xmlns="http://www.w3.org/2000/svg" xmlns:xlink="http://www.w3.org/1999/xlink" width="76.4" height="76.4" viewBox="0,0,76.4,76.4"><g transform="translate(-201.80002,-141.80001)"><g data-paper-data="{&quot;isPaintingLayer&quot;:true}" fill-rule="nonzero" stroke-linejoin="miter" stroke-miterlimit="10" stroke-dasharray="" stroke-dashoffset="0" style="mix-blend-mode: normal"><path d="M240.00003,141.80001c11.1,0 17.9,0 22.4,1.9c6.5,2.3 11.6,7.5 14,14c1.8,4.4 1.8,11.3 1.8,22.3c0,11 0,17.9 -1.8,22.3c-2.4,6.5 -7.5,11.7 -14,14c-4.5,1.9 -11.3,1.9 -22.4,1.9c-11,0 -17.9,0 -22.3,-1.9c-6.5,-2.3 -11.6,-7.5 -14,-14c-1.8,-4.4 -1.9,-11.3 -1.9,-22.3c0,-11 0.1,-17.9 1.9,-22.3c2.4,-6.5 7.5,-11.7 14,-14c4.4,-1.9 11.3,-1.9 22.3,-1.9z" fill="#f1f1f1" stroke="none" stroke-width="1" stroke-linecap="butt"/><path d="M259.48839,188.67569c0,4.2456 -3.50773,7.68734 -7.83476,7.68734c-4.32702,0 -7.83477,-3.44174 -7.83477,-7.68734c0,-4.2456 3.50775,-7.68734 7.83477,-7.68734c4.32702,0 7.83476,3.44174 7.83476,7.68734z" fill="#000000" stroke="none" stroke-width="0" stroke-linecap="butt"/><path d="M261.23647,201.09259c0,5.19288 -4.29039,9.40253 -9.58284,9.40253c-5.29246,0 -9.58284,-4.20965 -9.58284,-9.40253c0,-5.19287 4.29039,-9.40253 9.58284,-9.40253c5.29246,0 9.58284,4.20965 9.58284,9.40253z" fill="#185af2" stroke="none" stroke-width="0" stroke-linecap="butt"/><path d="M261.23647,161.03243c0,5.19288 -4.29039,9.40253 -9.58284,9.40253c-5.29246,0 -9.58284,-4.20965 -9.58284,-9.40253c0,-5.19287 4.29039,-9.40253 9.58284,-9.40253c5.29246,0 9.58284,4.20965 9.58284,9.40253z" fill="#000000" stroke="none" stroke-width="0" stroke-linecap="butt"/><path d="M223.3621,189.64793c0,0 0.59181,-3.04596 0.78369,-4.58996c0.03794,-0.30516 0.28087,-0.54898 0.54464,-0.54992c1.29061,-0.00458 11.40827,-0.04045 11.40827,-0.04045" fill="none" stroke="#185af2" stroke-width="6" stroke-linecap="round"/><path d="M226.40522,165.45859c7.06664,0.10478 9.33847,4.02111 8.0722,7.00842c-0.86254,2.03484 -3.66035,3.52569 -6.55424,3.52899c-4.03796,0.00696 -6.65961,-3.0778 -6.65961,-3.0778" fill="none" stroke="#000000" stroke-width="6" stroke-linecap="round"/><path d="M221.30097,159.30754c0,0 1.84635,-4.85867 6.9119,-4.85172c5.41636,0.00816 6.63494,4.32086 6.63494,4.32086" data-paper-data="{&quot;index&quot;:null}" fill="none" stroke="#185af2" stroke-width="6" stroke-linecap="round"/><path d="M227.54335,196.31612c7.06662,0.10478 9.33847,4.02111 8.0722,7.00842c-0.86254,2.03483 -3.66035,3.52569 -6.55424,3.52899c-4.03796,0.00695 -6.49954,-3.07781 -6.49954,-3.07781" fill="none" stroke="#000000" stroke-width="6" stroke-linecap="round"/><path d="M258.58448,171.74285c0,0 -1.88926,4.85867 -7.07256,4.85172c-5.54226,-0.00816 -6.78916,-4.32086 -6.78916,-4.32086" data-paper-data="{&quot;index&quot;:null}" fill="none" stroke="#185af2" stroke-width="6" stroke-linecap="round"/></g></g></svg>