<svg version="1.1" xmlns="http://www.w3.org/2000/svg" xmlns:xlink="http://www.w3.org/1999/xlink" width="76.4" height="76.4" viewBox="0,0,76.4,76.4"><g transform="translate(-201.80001,-141.80001)"><g data-paper-data="{&quot;isPaintingLayer&quot;:true}" fill-rule="nonzero" stroke="none" stroke-width="1" stroke-linecap="butt" stroke-linejoin="miter" stroke-miterlimit="10" stroke-dasharray="" stroke-dashoffset="0" style="mix-blend-mode: normal"><path d="M240.00001,141.80001c11.1,0 17.9,0 22.4,1.9c6.5,2.3 11.6,7.5 14,14c1.8,4.4 1.8,11.3 1.8,22.3c0,11 0,17.9 -1.8,22.3c-2.4,6.5 -7.5,11.7 -14,14c-4.5,1.9 -11.3,1.9 -22.4,1.9c-11,0 -17.9,0 -22.3,-1.9c-6.5,-2.3 -11.6,-7.5 -14,-14c-1.8,-4.4 -1.9,-11.3 -1.9,-22.3c0,-11 0.1,-17.9 1.9,-22.3c2.4,-6.5 7.5,-11.7 14,-14c4.4,-1.9 11.3,-1.9 22.3,-1.9z" fill="#f1f1f1"/><path d="M258.47968,173.15405c1.52133,0 2.6847,0 3.66909,0.04474c0.93964,0.08949 1.70031,0.17898 2.28199,0.35796c1.92403,0.71592 3.40062,2.1925 4.11654,4.11654c0.26847,0.76066 0.4027,1.52133 0.4027,2.32674c0,0.80541 -0.13423,1.61082 -0.4027,2.32674c-0.71592,1.92403 -2.1925,3.40062 -4.11654,4.11654c-0.58168,0.17898 -1.34235,0.31321 -2.28199,0.35796c-0.98439,0.04474 -2.14776,0.04474 -3.66909,0.04474c0,0 -11.85634,0 -17.61826,0c-5.54847,0 -6.01301,-13.69196 -0.45848,-13.69196c5.86286,0 18.07674,0 18.07674,0z" fill="#000000"/><path d="M233.20878,198.49987l-0.10947,-36.95919c-0.00451,-1.52132 -0.00795,-2.68469 0.03388,-3.6692c0.08671,-0.93991 0.17394,-1.70083 0.3512,-2.28304c0.71022,-1.92615 2.18242,-3.4071 4.10433,-4.12871c0.75987,-0.27072 1.52013,-0.40721 2.32554,-0.40959c0.80541,-0.00239 1.61121,0.12946 2.32792,0.39581c1.92615,0.71022 3.4071,2.18242 4.12871,4.10433c0.1807,0.58115 0.31719,1.34142 0.36472,2.28092c0.04766,0.98425 0.05111,2.14762 0.05561,3.66894l0.10947,36.95919c0.00451,1.52132 0.00795,2.68469 -0.03388,3.6692c-0.04196,0.93977 -0.17394,1.70083 -0.3512,2.28304c-0.71022,1.92615 -2.18242,3.4071 -4.10433,4.12871c-0.71512,0.27059 -1.52013,0.40721 -2.32554,0.40959c-0.80541,0.00239 -1.56646,-0.1296 -2.32792,-0.39581c-1.92615,-0.71022 -3.4071,-2.18242 -4.12871,-4.10433c-0.1807,-0.58115 -0.27244,-1.34155 -0.36472,-2.28092c-0.04766,-0.98425 -0.05111,-2.14762 -0.05561,-3.66894z" fill="#000000"/><path d="M221.52033,173.15405h-0.47923c1.52133,0 2.6847,0 3.66909,0.04474c0.93964,0.08949 1.70031,0.17898 2.28199,0.35796c1.92403,0.71592 3.40062,2.1925 4.11654,4.11654c0.26847,0.76066 0.4027,1.52133 0.4027,2.32674c0,0.80541 -0.13423,1.61082 -0.4027,2.32674c-0.71592,1.92403 -2.1925,3.40062 -4.11654,4.11654c-0.58168,0.17898 -1.34235,0.31321 -2.28199,0.35796c-0.98439,0.04474 -2.14776,0.04474 -3.66909,0.04474h0.47923c-1.52133,0 -2.6847,0 -3.66909,-0.04474c-0.93964,-0.04474 -1.70031,-0.17898 -2.28199,-0.35796c-1.92403,-0.71592 -3.40062,-2.1925 -4.11654,-4.11654c-0.26847,-0.71592 -0.4027,-1.52133 -0.4027,-2.32674c0,-0.80541 0.13423,-1.56607 0.4027,-2.32674c0.71592,-1.92403 2.1925,-3.40062 4.11654,-4.11654c0.58168,-0.17898 1.34235,-0.26847 2.28199,-0.35796c0.98439,-0.04474 2.14776,-0.04474 3.66909,-0.04474z" fill="#185af2"/></g></g></svg>