<svg version="1.1" xmlns="http://www.w3.org/2000/svg" xmlns:xlink="http://www.w3.org/1999/xlink" width="76.4" height="76.4" viewBox="0,0,76.4,76.4"><g transform="translate(-201.80003,-141.8)"><g data-paper-data="{&quot;isPaintingLayer&quot;:true}" fill-rule="nonzero" stroke-linejoin="miter" stroke-miterlimit="10" stroke-dasharray="" stroke-dashoffset="0" style="mix-blend-mode: normal"><path d="M240.00004,141.80001c11.1,0 17.9,0 22.4,1.9c6.5,2.3 11.6,7.5 14,14c1.8,4.4 1.8,11.3 1.8,22.3c0,11 0,17.9 -1.8,22.3c-2.4,6.5 -7.5,11.7 -14,14c-4.5,1.9 -11.3,1.9 -22.4,1.9c-11,0 -17.9,0 -22.3,-1.9c-6.5,-2.3 -11.6,-7.5 -14,-14c-1.8,-4.4 -1.9,-11.3 -1.9,-22.3c0,-11 0.1,-17.9 1.9,-22.3c2.4,-6.5 7.5,-11.7 14,-14c4.4,-1.9 11.3,-1.9 22.3,-1.9z" fill="#f1f1f1" stroke="none" stroke-width="1" stroke-linecap="butt"/><path d="M242.44505,158.63637l-6.63636,13.09091c0,0 -11.29438,-0.13858 -13.45843,-0.16513c-0.68786,-0.00844 -0.92862,0.38076 -0.46632,0.80695c1.60308,1.47784 10.74293,9.90364 10.74293,9.90364c0,0 -7.6009,15.42757 -8.70313,17.66477c-0.2585,0.52468 -0.22097,0.82432 0.11054,0.63489c1.79261,-1.02435 17.22895,-9.84512 17.22895,-9.84512l17.09091,10.72727" fill="#000000" stroke="#000000" stroke-width="10" stroke-linecap="round"/><path d="M254.86551,180c0,5.78748 -4.58908,10.47917 -10.25,10.47917c-5.66092,0 -10.25,-4.69168 -10.25,-10.47917c0,-5.78748 4.58908,-10.47917 10.25,-10.47917c5.66092,0 10.25,4.69168 10.25,10.47917z" fill="#f1f1f1" stroke="none" stroke-width="0" stroke-linecap="butt"/><path d="M242.62687,158.54546l15.72728,42.90909" fill="none" stroke="#185af2" stroke-width="11" stroke-linecap="round"/></g></g></svg>