<svg width="100" height="100" viewBox="0 0 100 100" fill="none" xmlns="http://www.w3.org/2000/svg">
<rect width="100" height="100" rx="50" fill="white"/>
<rect x="53" y="21" width="27" height="27" rx="13.5" fill="#374F66"/>
<rect x="21" y="21" width="27" height="27" rx="6" fill="#A6BAD3"/>
<path d="M63.3096 59.0997C64.3472 55.8151 64.866 54.1728 65.696 53.8083C66.2084 53.5834 66.7916 53.5834 67.304 53.8083C68.134 54.1728 68.6528 55.8151 69.6904 59.0997V59.0997C69.9753 60.0013 70.1177 60.4522 70.4063 60.7737C70.5912 60.9797 70.8169 61.145 71.069 61.2593C71.4625 61.4377 71.9378 61.4377 72.8883 61.4377V61.4377C76.3362 61.4377 78.0602 61.4377 78.6597 62.1539C78.9855 62.543 79.1511 63.0414 79.1231 63.548C79.0716 64.4806 77.6989 65.5064 74.9535 67.5581L74.8018 67.6714C74.0262 68.251 73.6384 68.5408 73.4285 68.9333C73.3153 69.145 73.2412 69.3753 73.2096 69.6133C73.151 70.0545 73.2968 70.5162 73.5885 71.4394L73.6685 71.6926C74.6789 74.8913 75.1841 76.4906 74.7305 77.259C74.4416 77.7484 73.958 78.0918 73.4007 78.2034C72.5258 78.3784 71.1822 77.3744 68.4952 75.3664V75.3664C67.7312 74.7955 67.3493 74.5101 66.9248 74.4178C66.6449 74.3569 66.3551 74.3569 66.0752 74.4178C65.6507 74.5101 65.2688 74.7955 64.5048 75.3664V75.3664C61.8178 77.3744 60.4742 78.3784 59.5993 78.2034C59.042 78.0918 58.5584 77.7484 58.2695 77.259C57.8159 76.4906 58.3211 74.8913 59.3315 71.6926L59.4115 71.4394C59.7032 70.5162 59.849 70.0545 59.7904 69.6133C59.7588 69.3753 59.6847 69.145 59.5715 68.9333C59.3616 68.5408 58.9738 68.251 58.1982 67.6714L58.0465 67.5581C55.3011 65.5064 53.9284 64.4806 53.8769 63.548C53.8489 63.0414 54.0145 62.543 54.3403 62.1539C54.9398 61.4377 56.6638 61.4377 60.1117 61.4377V61.4377C61.0622 61.4377 61.5375 61.4377 61.931 61.2593C62.1831 61.145 62.4088 60.9797 62.5937 60.7737C62.8823 60.4522 63.0247 60.0013 63.3096 59.0997V59.0997Z" fill="#374F66"/>
<path d="M31.8223 54.3005C32.9319 52.1041 36.0681 52.1041 37.1777 54.3005L47.4565 74.6473C48.4646 76.6427 47.0144 79 44.7788 79H24.2212C21.9856 79 20.5354 76.6427 21.5435 74.6473L31.8223 54.3005Z" fill="#374F66"/>
</svg>
