<svg width="100" height="100" viewBox="0 0 100 100" fill="none" xmlns="http://www.w3.org/2000/svg">
<rect width="100" height="100" rx="50" fill="white"/>
<path d="M68.0137 66.5371C65.6647 66.5371 63.6165 66.1576 61.8691 65.3984C60.1217 64.625 58.7324 63.5579 57.7012 62.1973C56.6842 60.8366 56.1042 59.2682 55.9609 57.4922L55.9395 57.2129H62.127L62.1699 57.4492C62.2702 58.194 62.5638 58.86 63.0508 59.4473C63.5521 60.0202 64.2181 60.4785 65.0488 60.8223C65.8939 61.1517 66.875 61.3164 67.9922 61.3164C69.1094 61.3164 70.0762 61.1374 70.8926 60.7793C71.709 60.4069 72.3392 59.8984 72.7832 59.2539C73.2415 58.5951 73.4707 57.8431 73.4707 56.998V56.9551C73.4707 55.4655 72.9479 54.3268 71.9023 53.5391C70.8568 52.7513 69.3958 52.3574 67.5195 52.3574H63.9746V47.7383H67.4336C68.5221 47.7383 69.4674 47.5592 70.2695 47.2012C71.0716 46.8431 71.6875 46.349 72.1172 45.7188C72.5612 45.0742 72.7832 44.3366 72.7832 43.5059V43.4629C72.7832 42.6178 72.5898 41.9017 72.2031 41.3145C71.8307 40.7129 71.2793 40.2546 70.5488 39.9395C69.8327 39.61 68.9661 39.4453 67.9492 39.4453C66.9466 39.4453 66.0586 39.61 65.2852 39.9395C64.5117 40.2689 63.8958 40.7344 63.4375 41.3359C62.9792 41.9232 62.6999 42.6178 62.5996 43.4199L62.5781 43.6133H56.627L56.6484 43.3555C56.7917 41.5508 57.3431 39.9896 58.3027 38.6719C59.2767 37.3398 60.5872 36.3086 62.2344 35.5781C63.8815 34.8333 65.7865 34.4609 67.9492 34.4609C70.1836 34.4609 72.1172 34.8047 73.75 35.4922C75.3971 36.1654 76.6719 37.1107 77.5742 38.3281C78.4766 39.5456 78.9277 40.9707 78.9277 42.6035V42.6465C78.9277 43.9355 78.6413 45.0671 78.0684 46.041C77.4954 47.015 76.7148 47.8171 75.7266 48.4473C74.7526 49.0775 73.6641 49.5215 72.4609 49.7793V49.9082C74.7669 50.123 76.6074 50.8678 77.9824 52.1426C79.3717 53.4173 80.0664 55.1074 80.0664 57.2129V57.2559C80.0664 59.1035 79.5651 60.722 78.5625 62.1113C77.5599 63.5007 76.1562 64.5892 74.3516 65.377C72.5469 66.1504 70.4342 66.5371 68.0137 66.5371Z" fill="#A6BAD3"/>
<path d="M18.5781 66V34.998H26.0762L34.8848 57.2773H35.0137L43.8223 34.998H51.3203V66H45.541V45.0312H42.5332L49.0215 35.8574L36.9902 66H32.9082L20.877 35.8574L27.3652 45.0312H24.3574V66H18.5781Z" fill="#374F66"/>
</svg>
