<svg width="100" height="100" viewBox="0 0 100 100" fill="none" xmlns="http://www.w3.org/2000/svg">
<rect width="100" height="100" rx="50" fill="white"/>
<path d="M39.6338 28.3662C39.6338 22.6411 44.2749 18 50 18C55.7251 18 60.3662 22.6411 60.3662 28.3662V70.7324C60.3662 76.4575 55.7251 81.0986 50 81.0986C44.2749 81.0986 39.6338 76.4575 39.6338 70.7324V28.3662Z" fill="#374F66"/>
<path d="M39.6338 50C39.6338 44.2749 44.2749 39.6338 50 39.6338H71.6338C77.3589 39.6338 82 44.2749 82 50C82 55.7251 77.3589 60.3662 71.6338 60.3662H50C44.2749 60.3662 39.6338 55.7251 39.6338 50Z" fill="#374F66"/>
<rect x="18" y="39.6338" width="20.7324" height="20.7324" rx="10.3662" fill="#A6BAD3"/>
</svg>
