<svg width="100" height="100" viewBox="0 0 100 100" fill="none" xmlns="http://www.w3.org/2000/svg">
<rect width="100" height="100" rx="50" fill="white"/>
<path d="M41.8264 30.1558C43.8156 24.0338 44.8101 20.9728 46.074 19.8792C48.328 17.9288 51.672 17.9288 53.926 19.8792C55.1899 20.9728 56.1844 24.0338 58.1736 30.1558V30.1558C58.7308 31.8708 59.0095 32.7283 59.4629 33.4116C60.2601 34.6131 61.4633 35.4873 62.8524 35.8742C63.6423 36.0942 64.544 36.0942 66.3472 36.0942V36.0942C72.7842 36.0942 76.0028 36.0942 77.4334 36.9583C79.9848 38.4993 81.0182 41.6796 79.8598 44.426C79.2103 45.966 76.6064 47.8578 71.3988 51.6414V51.6414C69.9399 52.7013 69.2105 53.2312 68.7007 53.8736C67.8044 55.0031 67.3448 56.4176 67.406 57.8582C67.4409 58.6775 67.7195 59.535 68.2767 61.25V61.25C70.2659 67.372 71.2605 70.433 70.8808 72.0606C70.2036 74.9633 67.4983 76.9289 64.5284 76.6759C62.8631 76.534 60.2592 74.6422 55.0516 70.8586V70.8586C53.5927 69.7987 52.8633 69.2688 52.0948 68.9824C50.7436 68.479 49.2564 68.479 47.9052 68.9824C47.1367 69.2688 46.4073 69.7987 44.9484 70.8586V70.8586C39.7408 74.6422 37.1369 76.534 35.4716 76.6759C32.5017 76.9289 29.7964 74.9633 29.1192 72.0606C28.7395 70.433 29.7341 67.372 31.7233 61.25V61.25C32.2805 59.535 32.5591 58.6775 32.594 57.8582C32.6552 56.4176 32.1956 55.0031 31.2993 53.8736C30.7895 53.2312 30.0601 52.7013 28.6012 51.6414V51.6414C23.3936 47.8578 20.7897 45.966 20.1402 44.426C18.9818 41.6796 20.0152 38.4993 22.5666 36.9583C23.9972 36.0942 27.2158 36.0942 33.6528 36.0942V36.0942C35.456 36.0942 36.3577 36.0942 37.1476 35.8742C38.5367 35.4873 39.7399 34.6131 40.5371 33.4116C40.9905 32.7283 41.2692 31.8708 41.8264 30.1558V30.1558Z" fill="#374F66"/>
</svg>
