<svg width="100" height="100" viewBox="0 0 100 100" fill="none" xmlns="http://www.w3.org/2000/svg">
<rect width="100" height="100" rx="50" fill="white"/>
<rect x="64" y="25" width="18" height="50" rx="6" fill="#374F66"/>
<path d="M18 37C18 31.3431 18 28.5147 19.7574 26.7574C21.5147 25 24.3431 25 30 25H47C52.6569 25 55.4853 25 57.2426 26.7574C59 28.5147 59 31.3431 59 37V54.5C59 57.7516 59 59.3774 58.7782 60.7369C57.6018 67.9486 51.9486 73.6018 44.7369 74.7782C43.3774 75 41.7516 75 38.5 75V75C35.2484 75 33.6226 75 32.2631 74.7782C25.0514 73.6018 19.3982 67.9486 18.2218 60.7369C18 59.3774 18 57.7516 18 54.5V37Z" fill="#A6BAD3"/>
</svg>
