<svg width="100" height="100" viewBox="0 0 100 100" fill="none" xmlns="http://www.w3.org/2000/svg">
<rect width="100" height="100" rx="50" fill="white"/>
<path d="M24.4556 60.315C20.7398 56.9692 18.8818 55.2962 18.1036 53.3671C17.2321 51.207 17.2321 48.793 18.1036 46.6329C18.8818 44.7038 20.7398 43.0308 24.4556 39.685V39.685C31.3262 33.4984 34.7615 30.4051 37.6505 30.0908C40.8705 29.7404 44.0304 31.1472 45.9246 33.7745C47.6242 36.1318 47.6242 40.7546 47.6242 50V50C47.6242 59.2455 47.6242 63.8682 45.9246 66.2255C44.0304 68.8528 40.8705 70.2596 37.6505 69.9093C34.7615 69.5949 31.3262 66.5016 24.4556 60.315V60.315Z" fill="#374F66"/>
<rect width="14.8661" height="48.8631" rx="7.43306" transform="matrix(0.937974 0.346706 -0.337381 0.941368 69.056 24.8837)" fill="#A6BAD3"/>
</svg>
