<svg width="80" height="80" viewBox="0 0 80 80" fill="none" xmlns="http://www.w3.org/2000/svg">
<rect width="80" height="80" rx="40" fill="white" style="fill:white;fill-opacity:1;"/>
<circle cx="33.9894" cy="33.9896" r="17" transform="rotate(-45 33.9894 33.9896)" fill="#D87D1B" style="fill:#D87D1B;fill:color(display-p3 0.8478 0.4899 0.1073);fill-opacity:1;"/>
<circle cx="17" cy="17" r="17" transform="matrix(0.707107 -0.707107 -0.707107 -0.707107 46.0103 70.052)" fill="#D87D1B" style="fill:#D87D1B;fill:color(display-p3 0.8478 0.4899 0.1073);fill-opacity:1;"/>
<g clip-path="url(#paint0_angular_455_30_clip_path)" data-figma-skip-parse="true"><g transform="matrix(-0.0120208 -0.0120208 -0.0120208 0.0120208 45.8162 46.2044)"><foreignObject x="-1000" y="-1000" width="2000" height="2000"><div xmlns="http://www.w3.org/1999/xhtml" style="background:conic-gradient(from 90deg,rgba(255, 255, 255, 1) 0deg,rgba(255, 201, 147, 1) 88.2692deg,rgba(255, 255, 255, 1) 268.269deg,rgba(255, 192, 140, 1) 360deg);height:100%;width:100%;opacity:1"></div></foreignObject></g></g><path d="M33.7954 34.1836C38.2446 29.7344 44.5463 28.2678 50.2177 29.7822C51.732 35.4535 50.2655 41.7552 45.8162 46.2044C41.3668 50.6538 35.0647 52.1211 29.3932 50.6066C27.8787 44.9351 29.346 38.633 33.7954 34.1836Z" data-figma-gradient-fill="{&#34;type&#34;:&#34;GRADIENT_ANGULAR&#34;,&#34;stops&#34;:[{&#34;color&#34;:{&#34;r&#34;:1.0,&#34;g&#34;:1.0,&#34;b&#34;:1.0,&#34;a&#34;:1.0},&#34;position&#34;:0.0},{&#34;color&#34;:{&#34;r&#34;:1.0,&#34;g&#34;:0.79006409645080566,&#34;b&#34;:0.58012813329696655,&#34;a&#34;:1.0},&#34;position&#34;:0.24519230425357819},{&#34;color&#34;:{&#34;r&#34;:1.0,&#34;g&#34;:1.0,&#34;b&#34;:1.0,&#34;a&#34;:1.0},&#34;position&#34;:0.74519228935241699},{&#34;color&#34;:{&#34;r&#34;:1.0,&#34;g&#34;:0.75320512056350708,&#34;b&#34;:0.55128198862075806,&#34;a&#34;:1.0},&#34;position&#34;:1.0}],&#34;transform&#34;:{&#34;m00&#34;:-24.041631698608398,&#34;m01&#34;:-24.041631698608398,&#34;m02&#34;:69.857826232910156,&#34;m10&#34;:-24.041631698608398,&#34;m11&#34;:24.041631698608398,&#34;m12&#34;:46.204444885253906},&#34;opacity&#34;:1.0,&#34;blendMode&#34;:&#34;NORMAL&#34;,&#34;stopsVar&#34;:[{&#34;color&#34;:{&#34;r&#34;:1.0,&#34;g&#34;:1.0,&#34;b&#34;:1.0,&#34;a&#34;:1.0},&#34;position&#34;:0.0},{&#34;color&#34;:{&#34;r&#34;:1.0,&#34;g&#34;:0.79006409645080566,&#34;b&#34;:0.58012813329696655,&#34;a&#34;:1.0},&#34;position&#34;:0.24519230425357819},{&#34;color&#34;:{&#34;r&#34;:1.0,&#34;g&#34;:1.0,&#34;b&#34;:1.0,&#34;a&#34;:1.0},&#34;position&#34;:0.74519228935241699},{&#34;color&#34;:{&#34;r&#34;:1.0,&#34;g&#34;:0.75320512056350708,&#34;b&#34;:0.55128198862075806,&#34;a&#34;:1.0},&#34;position&#34;:1.0}],&#34;visible&#34;:true}"/>
<defs>
<clipPath id="paint0_angular_455_30_clip_path"><path d="M33.7954 34.1836C38.2446 29.7344 44.5463 28.2678 50.2177 29.7822C51.732 35.4535 50.2655 41.7552 45.8162 46.2044C41.3668 50.6538 35.0647 52.1211 29.3932 50.6066C27.8787 44.9351 29.346 38.633 33.7954 34.1836Z"/></clipPath></defs>
</svg>
